<?xml version="1.0" encoding="UTF-8" standalone="no"?>
<!-- Created with Inkscape (http://www.inkscape.org/) -->

<svg
   width="12.137532in"
   height="12.115179in"
   viewBox="0 0 308.29332 307.72554"
   version="1.1"
   id="svg5"
   xmlSpace="preserve"
   xmlnsXlink="http://www.w3.org/1999/xlink"
   xmlns="http://www.w3.org/2000/svg"
   xmlnsSvg="http://www.w3.org/2000/svg"><defs
     id="defs2" /><g
     id="layer1"
     transform="translate(1141.7189,2413.8578)"><circle
       style="fill:none;fill-opacity:1;stroke:none;stroke-width:1.37;stroke-linecap:round;stroke-linejoin:round;stroke-miterlimit:4.4"
       id="path3145"
       cx="622.67908"
       cy="2239.2065"
       r="193.47656"
       transform="rotate(159.6756)" /><text
       xmlSpace="preserve"
       style="font-size:48.8019px;font-family:Futura-Bold;-inkscape-font-specification:Futura-Bold;text-align:start;text-orientation:upright;text-anchor:start;fill:#4d6944;fill-opacity:1;stroke-width:1.89521;stroke-linecap:round;stroke-linejoin:round;stroke-miterlimit:4.4"
       id="text3201"
       transform="rotate(-0.19012659,-946.99639,-2706.5295)"><textPath
         xlinkHref="#path3145"
         id="textPath3203"><tspan
           style="font-style:normal;font-variant:normal;font-weight:normal;font-stretch:normal;font-family:skra;-inkscape-font-specification:skra;text-align:start;text-anchor:start;fill:#4d6944;fill-opacity:1;stroke-width:1.89521"
           id="tspan3199">ATLAS CAMPUS FELLOWSHIP</tspan></textPath></text><path
       id="path84"
       style="fill:#97b759;fill-opacity:1;stroke-width:0.659307"
       d="m -993.63743,-2413.8575 -2.80193,0.256 c -38.73424,3.5694 -66.74234,15.1152 -93.17134,38.4095 l -2.5518,2.2494 7.209,6.7526 7.2091,6.7526 2.0004,-1.6239 c 23.7508,-19.285 49.982,-30.3871 76.33792,-32.3097 l 5.76865,-0.4213 v -10.0339 z m 12.52655,0.1494 v 9.9683 9.9689 l 5.76919,0.4639 c 26.0861,2.0916 61.22435,16.9615 75.6425,32.011 2.39289,2.498 1.58388,2.9182 9.81795,-5.1052 l 6.9451,-6.768 -5.40814,-4.6482 c -24.08785,-20.7036 -56.27325,-33.517 -89.63456,-35.686 z m -0.33064,47.8087 0.17599,45.6405 0.17065,45.6404 10.21046,-10.1945 10.21046,-10.1944 v -35.446 -35.4454 l -10.38485,-6e-4 z m -32.63548,6e-4 v 35.6182 35.6182 l 10.0547,9.8292 10.05583,9.8286 0.52796,-22.8661 c 0.28798,-12.5761 0.33064,-33.0275 0.0853,-45.4468 l -0.4373,-22.5813 h -10.14269 z m 140.1034,1.3343 -7.23467,7.2304 -7.23467,7.2309 2.34543,2.4863 c 17.45259,18.4978 32.23339,54.3469 32.23339,78.1809 0,2.5758 0.20798,3.0473 1.48309,3.3278 2.07611,0.4586 18.20721,0.075 18.72664,-0.448 0.69221,-0.6922 -1.08366,-15.9881 -2.80727,-24.1833 -5.22948,-24.8552 -15.27729,-45.8233 -32.13259,-67.0516 z m -226.8022,0.7637 -2.2025,2.0825 c -19.1117,18.0717 -38.3449,64.6038 -38.3449,92.7714 v 2.6035 h 9.7683 9.7679 l 0.7738,-7.417 c 2.7214,-26.0958 14.8943,-54.627 30.8079,-72.2097 l 3.7431,-4.1363 -7.1568,-6.8475 z m 7.5819,77.0189 v 10.5491 0 10.5486 h 45.5764 45.5764 l -2.8771,-3.1315 c -1.5823,-1.7226 -6.2934,-6.4582 -10.4686,-10.5246 l -7.5904,-7.3925 h -35.1083 z m 140.74707,0 -10.5331,10.5491 -10.53363,10.5486 h 45.97906 45.97906 v -10.5486 -10.5491 h -35.44543 z m -189.27207,32.9656 0.5119,5.4391 c 3.2025,34.0375 16.5668,66.2741 36.9637,89.1594 l 3.3385,3.7453 7.1152,-7.0934 7.1157,-7.0928 -4.2578,-4.9927 c -16.306,-19.1213 -27.3041,-45.3151 -30.1061,-71.7052 l -0.7924,-7.4597 h -9.9444 z m 48.525,0 v 10.5486 10.5491 h 35.1164 35.1158 l 10.5336,-10.5486 10.5331,-10.5491 h -45.6489 z m 166.1463,0 c -25.02059,0 -45.4927,0.128 -45.4927,0.2826 0,0.1547 4.66846,4.9042 10.37471,10.5491 l 10.37472,10.2633 h 35.11744 35.11799 v -10.5491 -10.5486 z m 73.18348,0 v 3.3006 c 0,23.1289 -12.15325,53.843 -29.96263,75.723 l -4.1149,5.0556 6.93337,7.3014 6.93336,7.3013 1.73801,-2.0356 c 23.17324,-27.1468 38.9113,-65.3584 38.9113,-94.4785 v -2.1678 h -10.21952 z m -139.78344,8.8463 -10.23444,9.9171 -10.2345,9.9167 v 35.767 0 35.7675 h 10.219 10.219 v -45.6836 z m 12.86573,0.272 -0.55463,19.67 c -0.30398,10.8184 -0.34131,31.3156 -0.0853,45.5482 l 0.4693,25.8776 h 10.14167 10.14219 v -35.4972 -35.4982 l -10.05473,-10.0505 z m 83.86857,83.9576 -6.0017,4.7911 c -21.65656,17.29 -46.55288,27.4658 -72.75684,29.7371 l -5.43961,0.4693 v 9.8046 9.8041 h 2.27397 c 27.78891,0 67.56735,-15.7616 90.67128,-35.9265 l 5.28121,-4.6098 -7.01389,-7.0363 z m -181.16074,1.089 c -1.5892,0.192 -3.2621,2.0942 -7.3205,5.9862 l -6.8102,6.5302 1.978,2.1289 c 6.9489,7.4795 31.0292,22.432 46.0265,28.5798 8.4394,3.46 26.4435,7.9296 37.376,9.2793 v 0 c 3.8077,0.4693 8.33165,0.8906 10.0542,0.9349 l 3.13204,0.08 v -9.7929 -9.7929 l -7.41764,-0.7631 c -26.3058,-2.707 -48.9543,-12.0263 -70.2007,-28.887 -3.7235,-2.9544 -5.2284,-4.4749 -6.8177,-4.2834 z" /></g></svg>
